<svg id="ed22ab1b-44ff-43e3-af7d-d233771647a9" data-name="Layer 1" xmlns="http://www.w3.org/2000/svg" viewBox="0 0 200 200"><title>Artboard 1 copy 3</title><path d="M100,24.66A75.34,75.34,0,1,0,175.34,100,75.43,75.43,0,0,0,100,24.66ZM169.29,97.3h-30.7a90.31,90.31,0,0,0-4.31-24.71,71.77,71.77,0,0,0,13.25-7,58.78,58.78,0,0,0,8.29-6.78A69,69,0,0,1,169.29,97.3Zm-40.21,27.81a92.66,92.66,0,0,0-26-4.47V103.29h29.58A85.25,85.25,0,0,1,129.08,125.11ZM67.73,103.29H97.05v17.35A92.64,92.64,0,0,0,71.24,125,85,85,0,0,1,67.73,103.29Zm3.92-28.56A93,93,0,0,0,97.05,79V97.3H67.74A84.83,84.83,0,0,1,71.65,74.73ZM132.6,97.3H103V79a92.57,92.57,0,0,0,25.63-4.33A84.65,84.65,0,0,1,132.6,97.3ZM103,73V37A77.81,77.81,0,0,1,126.65,69,86.78,86.78,0,0,1,103,73Zm-6,0a87.06,87.06,0,0,1-23.4-3.9,77.83,77.83,0,0,1,23.4-31.95Zm0,53.55V163.9a78.1,78.1,0,0,1-23.92-33.26A86.63,86.63,0,0,1,97.05,126.58Zm6,0a86.48,86.48,0,0,1,24.14,4.16A78,78,0,0,1,103,164.09Zm3.18-95.64A68.65,68.65,0,0,1,141.5,44.42,70.14,70.14,0,0,1,149,51c1,1,2,2.11,3,3.2h0A59,59,0,0,1,132.27,67a83.93,83.93,0,0,0-26.78-35.65l-.68-.52ZM58.5,44.42c1.78-1.33,3.63-2.58,5.54-3.73a68.46,68.46,0,0,1,30-9.78l1.49-.11-.71.55A83.93,83.93,0,0,0,68,67.11,59,59,0,0,1,48,54.16c1.59-1.79,3.26-3.51,5-5.14A69.54,69.54,0,0,1,58.5,44.42ZM32.51,84a68.85,68.85,0,0,1,6.06-16.24c.67-1.27,1.37-2.51,2.12-3.73,1.08-1.79,2.25-3.52,3.49-5.19a58.78,58.78,0,0,0,8.29,6.78A71.64,71.64,0,0,0,66,72.71,90.71,90.71,0,0,0,61.75,97.3h-31A70.08,70.08,0,0,1,32.51,84Zm8.18,52c-1-1.58-1.85-3.22-2.69-4.88-.39-.79-.78-1.59-1.14-2.4a69,69,0,0,1-2.73-7c-.22-.67-.43-1.34-.63-2-.48-1.62-.91-3.27-1.27-4.94-.23-1.07-.43-2.16-.61-3.26-.06-.35-.11-.7-.17-1-.11-.76-.22-1.52-.31-2.28-.05-.42-.09-.83-.13-1.25-.08-.72-.13-1.46-.18-2.19,0-.42-.07-.84-.09-1.27v-.16h31a90.92,90.92,0,0,0,3.88,23.77A71.05,71.05,0,0,0,52.47,134,58.25,58.25,0,0,0,44,140.92C42.84,139.32,41.72,137.67,40.69,136Zm38.69,30.28A68.77,68.77,0,0,1,64,159.31c-1.91-1.15-3.76-2.4-5.54-3.73-1-.76-2-1.55-3-2.35a70.5,70.5,0,0,1-7.76-7.6,58.7,58.7,0,0,1,19.75-12.94A84,84,0,0,0,94,169.08,68.83,68.83,0,0,1,79.38,166.24ZM149,149c-1.46,1.47-3,2.86-4.59,4.19-1,.8-1.94,1.59-2.95,2.35a68.68,68.68,0,0,1-35.15,13.47,84.11,84.11,0,0,0,26.41-36.23,58.67,58.67,0,0,1,19.45,12.81C151.18,146.8,150.14,147.94,149,149Zm7-8.12h0a58.25,58.25,0,0,0-8.46-6.94,71,71,0,0,0-12.85-6.8,90.12,90.12,0,0,0,3.92-23.89h30.67A69,69,0,0,1,156,140.92Z" fill="#717171"/></svg>