<svg id="39938d68-0a3a-4135-989c-76e2f85d31a1" data-name="Layer 1" xmlns="http://www.w3.org/2000/svg" viewBox="0 0 200 200"><title>Artboard 1 copy 10</title><path d="M193.77,142.89c-2.69-20.26-18.5-34.42-38.45-34.42a39.15,39.15,0,0,0-15.06,3q1.59,1.84,3,3.84a34.69,34.69,0,0,1,12-2.12c16.65,0,30,11.26,33.36,27.7H154.17c.29,1.54.51,3.1.69,4.69h36.58a2.35,2.35,0,0,0,2.33-2.66Z" fill="#717171"/><path d="M44.68,113.16A34.45,34.45,0,0,1,57,115.37q1.42-2,3-3.84a39.28,39.28,0,0,0-15.28-3.06c-19.95,0-35.76,14.16-38.45,34.42a2.35,2.35,0,0,0,2.33,2.66H45.44c.18-1.59.4-3.15.69-4.69H11.32C14.66,124.42,28,113.16,44.68,113.16Z" fill="#717171"/><path d="M99.94,101c-24.23,0-43.43,17.19-46.7,41.8A2.81,2.81,0,0,0,56,146h87.81a2.81,2.81,0,0,0,2.79-3.18C143.36,118.22,124.16,101,99.94,101ZM59.35,140.39c4-20,20.32-33.73,40.59-33.73s36.54,13.71,40.58,33.73Z" fill="#717171"/><path d="M90.07,93.34A21,21,0,1,0,79.24,75,20.9,20.9,0,0,0,90.07,93.34Zm10.16-33.73A15.37,15.37,0,1,1,84.86,75,15.39,15.39,0,0,1,100.23,59.61Z" fill="#717171"/><path d="M155.55,102.5a16.43,16.43,0,1,0-16.42-16.42A16.45,16.45,0,0,0,155.55,102.5Zm0-28.16a11.74,11.74,0,1,1-11.74,11.74A11.74,11.74,0,0,1,155.55,74.34Z" fill="#717171"/><path d="M44.67,102.5A16.43,16.43,0,1,0,28.24,86.08,16.45,16.45,0,0,0,44.67,102.5Zm0-28.16A11.74,11.74,0,1,1,32.93,86.08,11.75,11.75,0,0,1,44.67,74.34Z" fill="#717171"/></svg>